<svg width="20" height="20" viewBox="0 0 20 20" fill="none" xmlns="http://www.w3.org/2000/svg">
<path d="M16.523 10.0994L11.6874 8.3125L9.90616 3.47312C9.80067 3.18656 9.60983 2.93924 9.35937 2.76455C9.10891 2.58985 8.81089 2.49619 8.50553 2.49619C8.20017 2.49619 7.90215 2.58985 7.65169 2.76455C7.40124 2.93924 7.21039 3.18656 7.10491 3.47312L5.31241 8.3125L0.47303 10.0938C0.186463 10.1992 -0.0608515 10.3901 -0.235546 10.6405C-0.41024 10.891 -0.503906 11.189 -0.503906 11.4944C-0.503906 11.7997 -0.41024 12.0978 -0.235546 12.3482C-0.0608515 12.5987 0.186463 12.7895 0.47303 12.895L5.31241 14.6875L7.09366 19.5269C7.19914 19.8134 7.38999 20.0608 7.64044 20.2355C7.8909 20.4101 8.18892 20.5038 8.49428 20.5038C8.79964 20.5038 9.09766 20.4101 9.34812 20.2355C9.59858 20.0608 9.78942 19.8134 9.89491 19.5269L11.6874 14.6875L16.5268 12.9062C16.8133 12.8008 17.0607 12.6099 17.2354 12.3595C17.41 12.109 17.5037 11.811 17.5037 11.5056C17.5037 11.2003 17.41 10.9022 17.2354 10.6518C17.0607 10.4013 16.8133 10.2105 16.5268 10.105L16.523 10.0994ZM10.8437 13.3956C10.7419 13.4331 10.6494 13.4923 10.5727 13.569C10.496 13.6457 10.4368 13.7382 10.3993 13.84L8.49991 18.9859L6.60428 13.8438C6.56682 13.7409 6.50729 13.6474 6.42988 13.57C6.35246 13.4926 6.25903 13.4331 6.15616 13.3956L1.01397 11.5L6.15616 9.60437C6.25903 9.56692 6.35246 9.50739 6.42988 9.42997C6.50729 9.35255 6.56682 9.25913 6.60428 9.15625L8.49991 4.01406L10.3955 9.15625C10.4331 9.25805 10.4922 9.35051 10.5689 9.42723C10.6456 9.50395 10.7381 9.56311 10.8399 9.60063L15.9858 11.5L10.8437 13.3956ZM11.4999 1.75C11.4999 1.55109 11.5789 1.36032 11.7196 1.21967C11.8602 1.07902 12.051 1 12.2499 1H13.7499V-0.5C13.7499 -0.698912 13.8289 -0.889678 13.9696 -1.03033C14.1102 -1.17098 14.301 -1.25 14.4999 -1.25C14.6988 -1.25 14.8896 -1.17098 15.0302 -1.03033C15.1709 -0.889678 15.2499 -0.698912 15.2499 -0.5V1H16.7499C16.9488 1 17.1396 1.07902 17.2802 1.21967C17.4209 1.36032 17.4999 1.55109 17.4999 1.75C17.4999 1.94891 17.4209 2.13968 17.2802 2.28033C17.1396 2.42098 16.9488 2.5 16.7499 2.5H15.2499V4C15.2499 4.19891 15.1709 4.38968 15.0302 4.53033C14.8896 4.67098 14.6988 4.75 14.4999 4.75C14.301 4.75 14.1102 4.67098 13.9696 4.53033C13.8289 4.38968 13.7499 4.19891 13.7499 4V2.5H12.2499C12.051 2.5 11.8602 2.42098 11.7196 2.28033C11.5789 2.13968 11.4999 1.94891 11.4999 1.75ZM21.2499 6.25C21.2499 6.44891 21.1709 6.63968 21.0302 6.78033C20.8896 6.92098 20.6988 7 20.4999 7H19.7499V7.75C19.7499 7.94891 19.6709 8.13968 19.5302 8.28033C19.3896 8.42098 19.1988 8.5 18.9999 8.5C18.801 8.5 18.6102 8.42098 18.4696 8.28033C18.3289 8.13968 18.2499 7.94891 18.2499 7.75V7H17.4999C17.301 7 17.1102 6.92098 16.9696 6.78033C16.8289 6.63968 16.7499 6.44891 16.7499 6.25C16.7499 6.05109 16.8289 5.86032 16.9696 5.71967C17.1102 5.57902 17.301 5.5 17.4999 5.5H18.2499V4.75C18.2499 4.55109 18.3289 4.36032 18.4696 4.21967C18.6102 4.07902 18.801 4 18.9999 4C19.1988 4 19.3896 4.07902 19.5302 4.21967C19.6709 4.36032 19.7499 4.55109 19.7499 4.75V5.5H20.4999C20.6988 5.5 20.8896 5.57902 21.0302 5.71967C21.1709 5.86032 21.2499 6.05109 21.2499 6.25Z" fill="white"/>
</svg>
